<?xml version="1.0" standalone="no"?>
<!DOCTYPE svg PUBLIC "-//W3C//DTD SVG 20010904//EN"
 "http://www.w3.org/TR/2001/REC-SVG-20010904/DTD/svg10.dtd">
<svg version="1.0" xmlns="http://www.w3.org/2000/svg"
 width="512.000000pt" height="512.000000pt" viewBox="0 0 512.000000 512.000000"
 preserveAspectRatio="xMidYMid meet">
<metadata>
Created by potrace 1.14, written by Peter Selinger 2001-2017
</metadata>
<g transform="translate(0.000000,512.000000) scale(0.100000,-0.100000)"
fill="#000000" stroke="none">
<path d="M1292 4823 c-37 -12 -49 -25 -57 -58 -4 -20 -29 -165 -40 -235 -6
-38 -21 -127 -30 -175 -4 -27 -34 -209 -40 -245 -2 -13 -52 -15 -373 -15 -358
0 -373 -1 -392 -20 -18 -19 -20 -36 -22 -258 l-3 -238 25 -19 c36 -27 79 -31
340 -30 129 1 270 1 312 1 l78 -1 0 -1596 c0 -1041 4 -1602 10 -1614 6 -12 26
-21 53 -25 23 -3 245 -5 494 -3 439 3 453 4 467 23 13 17 15 94 16 563 0 298
1 542 3 542 1 0 18 -5 37 -10 92 -27 371 -85 465 -96 17 -2 39 -6 50 -8 11 -3
47 -8 80 -11 33 -4 71 -8 85 -11 138 -23 643 -23 770 0 14 3 47 7 73 11 77 9
225 42 312 68 376 114 621 313 748 607 50 116 64 225 67 514 1 144 2 340 3
436 3 251 -11 410 -48 570 -3 14 -8 36 -11 49 -23 109 -122 282 -200 349 -69
59 -197 138 -279 173 l-80 33 -1035 0 -1035 1 -3 352 -2 353 -27 17 c-24 16
-63 18 -401 18 -268 0 -385 -3 -410 -12z m2013 -1223 c22 -5 56 -12 75 -15 43
-7 145 -48 204 -81 145 -81 200 -252 196 -609 -5 -407 -8 -564 -14 -597 -14
-86 -73 -195 -145 -265 -92 -91 -265 -166 -436 -189 -27 -3 -61 -8 -75 -10
-39 -5 -320 -5 -365 1 -187 23 -297 40 -395 61 -152 33 -150 33 -185 42 l-30
8 -3 666 -2 666 162 80 c214 105 235 114 376 161 127 43 130 43 267 70 98 19
306 25 370 11z"/>
</g>
</svg>
